<svg width="75" height="62" viewBox="0 0 75 62" fill="none" xmlns="http://www.w3.org/2000/svg">
<path d="M52.2969 39.8907C52.0775 39.671 51.9542 39.3731 51.9542 39.0626C51.9542 38.752 52.0775 38.4542 52.2969 38.2344L64.3575 26.1719L32.8126 26.1719C32.5018 26.1719 32.2037 26.0485 31.9839 25.8287C31.7641 25.6089 31.6407 25.3109 31.6407 25.0001C31.6407 24.6893 31.7641 24.3912 31.9839 24.1714C32.2037 23.9517 32.5018 23.8282 32.8126 23.8282L64.3575 23.8282L52.2969 11.7657C52.0899 11.5435 51.9772 11.2497 51.9826 10.9461C51.9879 10.6425 52.1109 10.3529 52.3256 10.1382C52.5404 9.92345 52.83 9.80046 53.1336 9.7951C53.4372 9.78975 53.731 9.90244 53.9532 10.1094L68.0157 24.1719C68.2351 24.3917 68.3584 24.6895 68.3584 25.0001C68.3584 25.3106 68.2351 25.6085 68.0157 25.8282L53.9532 39.8907C53.7335 40.1101 53.4356 40.2334 53.1251 40.2334C52.8145 40.2334 52.5167 40.1101 52.2969 39.8907Z" fill="#EEEEEE"/>
<path d="M22.7031 22.1093C22.9225 22.329 23.0458 22.6269 23.0458 22.9374C23.0458 23.248 22.9225 23.5458 22.7031 23.7656L10.6425 35.8281H42.1874C42.4982 35.8281 42.7963 35.9515 43.0161 36.1713C43.2359 36.3911 43.3593 36.6891 43.3593 36.9999C43.3593 37.3107 43.2359 37.6088 43.0161 37.8286C42.7963 38.0483 42.4982 38.1718 42.1874 38.1718H10.6425L22.7031 50.2343C22.9101 50.4565 23.0228 50.7503 23.0174 51.0539C23.0121 51.3575 22.8891 51.6471 22.6744 51.8618C22.4596 52.0766 22.17 52.1995 21.8664 52.2049C21.5628 52.2103 21.269 52.0976 21.0468 51.8906L6.98432 37.8281C6.76487 37.6083 6.6416 37.3105 6.6416 36.9999C6.6416 36.6894 6.76487 36.3915 6.98432 36.1718L21.0468 22.1093C21.2665 21.8899 21.5644 21.7666 21.8749 21.7666C22.1855 21.7666 22.4833 21.8899 22.7031 22.1093Z" fill="#EEEEEE"/>
</svg>
