<svg width="20" height="20" viewBox="0 0 20 20" fill="none" xmlns="http://www.w3.org/2000/svg">
<path d="M16.2473 6.65764L9.99979 12.7476L3.75229 6.65764C3.64067 6.54862 3.49082 6.48758 3.33479 6.48758C3.17876 6.48758 3.02891 6.54862 2.91729 6.65764C2.86324 6.7106 2.82031 6.77381 2.79099 6.84356C2.76168 6.91332 2.74658 6.98823 2.74658 7.06389C2.74658 7.13956 2.76168 7.21447 2.79099 7.28422C2.82031 7.35398 2.86324 7.41719 2.91729 7.47014L9.56354 13.9501C9.68026 14.0639 9.8368 14.1276 9.99979 14.1276C10.1628 14.1276 10.3193 14.0639 10.436 13.9501L17.0823 7.47139C17.1367 7.4184 17.18 7.35504 17.2095 7.28505C17.2391 7.21506 17.2543 7.13986 17.2543 7.06389C17.2543 6.98793 17.2391 6.91273 17.2095 6.84274C17.18 6.77275 17.1367 6.70939 17.0823 6.65639C16.9707 6.54737 16.8208 6.48633 16.6648 6.48633C16.5088 6.48633 16.3589 6.54737 16.2473 6.65639V6.65764Z" fill="#DADADA"/>
</svg>
