<svg width="50" height="50" viewBox="0 0 50 50" fill="none" xmlns="http://www.w3.org/2000/svg">
<path d="M46.8749 39.0625V26.5625C46.8749 26.1481 46.7103 25.7507 46.4172 25.4576C46.1242 25.1646 45.7268 25 45.3124 25C44.898 25 44.5006 25.1646 44.2075 25.4576C43.9145 25.7507 43.7499 26.1481 43.7499 26.5625V35.291L27.6679 19.207C27.5227 19.0618 27.3504 18.9465 27.1607 18.8679C26.9711 18.7892 26.7677 18.7488 26.5624 18.7488C26.3571 18.7488 26.1537 18.7892 25.964 18.8679C25.7744 18.9465 25.602 19.0618 25.4569 19.207L18.7499 25.916L5.79286 12.957C5.49967 12.6638 5.10202 12.4991 4.68739 12.4991C4.27276 12.4991 3.87511 12.6638 3.58192 12.957C3.28874 13.2502 3.12402 13.6479 3.12402 14.0625C3.12402 14.4771 3.28874 14.8748 3.58192 15.168L17.6444 29.2305C17.7895 29.3757 17.9619 29.491 18.1515 29.5696C18.3412 29.6483 18.5446 29.6887 18.7499 29.6887C18.9552 29.6887 19.1586 29.6483 19.3482 29.5696C19.5379 29.491 19.7102 29.3757 19.8554 29.2305L26.5624 22.5215L41.5409 37.5H32.8124C32.398 37.5 32.0006 37.6646 31.7075 37.9576C31.4145 38.2507 31.2499 38.6481 31.2499 39.0625C31.2499 39.4769 31.4145 39.8743 31.7075 40.1674C32.0006 40.4604 32.398 40.625 32.8124 40.625H45.3124C45.7268 40.625 46.1242 40.4604 46.4172 40.1674C46.7103 39.8743 46.8749 39.4769 46.8749 39.0625Z" fill="#CB4E4E"/>
</svg>
