<svg width="50" height="50" viewBox="0 0 50 50" fill="none" xmlns="http://www.w3.org/2000/svg">
<path d="M46.8749 10.9375V23.4375C46.8749 23.8519 46.7103 24.2493 46.4172 24.5424C46.1242 24.8354 45.7268 25 45.3124 25C44.898 25 44.5006 24.8354 44.2075 24.5424C43.9145 24.2493 43.7499 23.8519 43.7499 23.4375V14.709L27.6679 30.793C27.5227 30.9382 27.3504 31.0535 27.1607 31.1321C26.9711 31.2108 26.7677 31.2512 26.5624 31.2512C26.3571 31.2512 26.1537 31.2108 25.964 31.1321C25.7744 31.0535 25.602 30.9382 25.4569 30.793L18.7499 24.084L5.79286 37.043C5.49967 37.3362 5.10202 37.5009 4.68739 37.5009C4.27276 37.5009 3.87511 37.3362 3.58192 37.043C3.28874 36.7498 3.12402 36.3521 3.12402 35.9375C3.12402 35.5229 3.28874 35.1252 3.58192 34.832L17.6444 20.7695C17.7895 20.6243 17.9619 20.509 18.1515 20.4304C18.3412 20.3517 18.5446 20.3113 18.7499 20.3113C18.9552 20.3113 19.1586 20.3517 19.3482 20.4304C19.5379 20.509 19.7102 20.6243 19.8554 20.7695L26.5624 27.4785L41.5409 12.5H32.8124C32.398 12.5 32.0006 12.3354 31.7075 12.0424C31.4145 11.7493 31.2499 11.3519 31.2499 10.9375C31.2499 10.5231 31.4145 10.1257 31.7075 9.83265C32.0006 9.53962 32.398 9.375 32.8124 9.375H45.3124C45.7268 9.375 46.1242 9.53962 46.4172 9.83265C46.7103 10.1257 46.8749 10.5231 46.8749 10.9375Z" fill="#4ECB71"/>
</svg>
