<svg width="30" height="30" viewBox="0 0 30 30" fill="none" xmlns="http://www.w3.org/2000/svg">
<rect x="0.5" y="0.5" width="29" height="29" rx="14.5" stroke="#F24E1E"/>
<path d="M21.7802 20.719C21.8499 20.7887 21.9052 20.8714 21.9429 20.9625C21.9806 21.0535 22 21.1511 22 21.2496C22 21.3482 21.9806 21.4457 21.9429 21.5368C21.9052 21.6278 21.8499 21.7105 21.7802 21.7802C21.7105 21.8499 21.6278 21.9052 21.5368 21.9429C21.4457 21.9806 21.3482 22 21.2496 22C21.1511 22 21.0535 21.9806 20.9625 21.9429C20.8714 21.9052 20.7887 21.8499 20.719 21.7802L14.5 15.5603L8.28097 21.7802C8.14025 21.9209 7.94939 22 7.75038 22C7.55136 22 7.3605 21.9209 7.21978 21.7802C7.07906 21.6395 7 21.4486 7 21.2496C7 21.0506 7.07906 20.8598 7.21978 20.719L13.4397 14.5L7.21978 8.28097C7.07906 8.14025 7 7.94939 7 7.75038C7 7.55136 7.07906 7.3605 7.21978 7.21978C7.3605 7.07906 7.55136 7 7.75038 7C7.94939 7 8.14025 7.07906 8.28097 7.21978L14.5 13.4397L20.719 7.21978C20.8598 7.07906 21.0506 7 21.2496 7C21.4486 7 21.6395 7.07906 21.7802 7.21978C21.9209 7.3605 22 7.55136 22 7.75038C22 7.94939 21.9209 8.14025 21.7802 8.28097L15.5603 14.5L21.7802 20.719Z" fill="#F24E1E"/>
</svg>
